C:\Users\u0145647\OneDrive - KU Leuven\KU Leuven\BCN_Workshop\ParameterEstimation\Data_CP1\IPSA\JointAngles\JointAngles_segment_24.mot
version=1
nRows=70
nColumns=4
inDegrees=yes
endheader
                time	         pelvis_tilt	       hip_flexion_r	       ankle_angle_r	
          2.85000000	         90.00000000	          0.00000000	        -32.58978666	
          2.85500000	         90.00000000	          0.00000000	        -32.54294073	
          2.86000000	         90.00000000	          0.00000000	        -32.49380409	
          2.86500000	         90.00000000	          0.00000000	        -32.44274303	
          2.87000000	         90.00000000	          0.00000000	        -32.39032326	
          2.87500000	         90.00000000	          0.00000000	        -32.33691125	
          2.88000000	         90.00000000	          0.00000000	        -32.28292272	
          2.88500000	         90.00000000	          0.00000000	        -32.22828371	
          2.89000000	         90.00000000	          0.00000000	        -32.17251992	
          2.89500000	         90.00000000	          0.00000000	        -32.11573897	
          2.90000000	         90.00000000	          0.00000000	        -32.05845181	
          2.90500000	         90.00000000	          0.00000000	        -32.00087672	
          2.91000000	         90.00000000	          0.00000000	        -31.94255654	
          2.91500000	         90.00000000	          0.00000000	        -31.88257631	
          2.92000000	         90.00000000	          0.00000000	        -31.82061331	
          2.92500000	         90.00000000	          0.00000000	        -31.75775816	
          2.93000000	         90.00000000	          0.00000000	        -31.69523524	
          2.93500000	         90.00000000	          0.00000000	        -31.63349556	
          2.94000000	         90.00000000	          0.00000000	        -31.57271655	
          2.94500000	         90.00000000	          0.00000000	        -31.51175929	
          2.95000000	         90.00000000	          0.00000000	        -31.44941105	
          2.95500000	         90.00000000	          0.00000000	        -31.38541158	
          2.96000000	         90.00000000	          0.00000000	        -31.31988224	
          2.96500000	         90.00000000	          0.00000000	        -31.25311978	
          2.97000000	         90.00000000	          0.00000000	        -31.18632115	
          2.97500000	         90.00000000	          0.00000000	        -31.12045738	
          2.98000000	         90.00000000	          0.00000000	        -31.05474835	
          2.98500000	         90.00000000	          0.00000000	        -30.98879325	
          2.99000000	         90.00000000	          0.00000000	        -30.92357026	
          2.99500000	         90.00000000	          0.00000000	        -30.85957727	
          3.00000000	         90.00000000	          0.00000000	        -30.79595688	
          3.00500000	         90.00000000	          0.00000000	        -30.73249419	
          3.01000000	         90.00000000	          0.00000000	        -30.67025308	
          3.01500000	         90.00000000	          0.00000000	        -30.61049650	
          3.02000000	         90.00000000	          0.00000000	        -30.55390071	
          3.02500000	         90.00000000	          0.00000000	        -30.49967734	
          3.03000000	         90.00000000	          0.00000000	        -30.44616939	
          3.03500000	         90.00000000	          0.00000000	        -30.39247027	
          3.04000000	         90.00000000	          0.00000000	        -30.33815562	
          3.04500000	         90.00000000	          0.00000000	        -30.28257230	
          3.05000000	         90.00000000	          0.00000000	        -30.22468824	
          3.05500000	         90.00000000	          0.00000000	        -30.16475205	
          3.06000000	         90.00000000	          0.00000000	        -30.10444141	
          3.06500000	         90.00000000	          0.00000000	        -30.04468326	
          3.07000000	         90.00000000	          0.00000000	        -29.98512173	
          3.07500000	         90.00000000	          0.00000000	        -29.92503953	
          3.08000000	         90.00000000	          0.00000000	        -29.86389648	
          3.08500000	         90.00000000	          0.00000000	        -29.80096308	
          3.09000000	         90.00000000	          0.00000000	        -29.73513064	
          3.09500000	         90.00000000	          0.00000000	        -29.66549379	
          3.10000000	         90.00000000	          0.00000000	        -29.59187026	
          3.10500000	         90.00000000	          0.00000000	        -29.51504844	
          3.11000000	         90.00000000	          0.00000000	        -29.43651238	
          3.11500000	         90.00000000	          0.00000000	        -29.35755515	
          3.12000000	         90.00000000	          0.00000000	        -29.27823854	
          3.12500000	         90.00000000	          0.00000000	        -29.19788833	
          3.13000000	         90.00000000	          0.00000000	        -29.11627882	
          3.13500000	         90.00000000	          0.00000000	        -29.03353836	
          3.14000000	         90.00000000	          0.00000000	        -28.95014106	
          3.14500000	         90.00000000	          0.00000000	        -28.86746568	
          3.15000000	         90.00000000	          0.00000000	        -28.78673467	
          3.15500000	         90.00000000	          0.00000000	        -28.70758044	
          3.16000000	         90.00000000	          0.00000000	        -28.62876317	
          3.16500000	         90.00000000	          0.00000000	        -28.54926985	
          3.17000000	         90.00000000	          0.00000000	        -28.46929814	
          3.17500000	         90.00000000	          0.00000000	        -28.38942764	
          3.18000000	         90.00000000	          0.00000000	        -28.31016674	
          3.18500000	         90.00000000	          0.00000000	        -28.23221830	
          3.19000000	         90.00000000	          0.00000000	        -28.15599037	
          3.19500000	         90.00000000	          0.00000000	        -28.08156604	
